<?xml version="1.0" standalone="no"?>
<!DOCTYPE svg PUBLIC "-//W3C//DTD SVG 20010904//EN"
 "http://www.w3.org/TR/2001/REC-SVG-20010904/DTD/svg10.dtd">
<svg version="1.0" xmlns="http://www.w3.org/2000/svg"
 width="300.000000pt" height="345.000000pt" viewBox="0 0 300.000000 345.000000"
 preserveAspectRatio="xMidYMid meet">
<metadata>
Created by potrace 1.10, written by Peter Selinger 2001-2011
</metadata>
<g transform="translate(0.000000,345.000000) scale(0.100000,-0.100000)"
fill="#000000" stroke="none">
<path d="M748 3019 c-631 -364 -745 -433 -741 -449 5 -19 6 -19 32 -1 21 16
163 98 406 236 22 13 139 80 260 150 121 70 236 137 255 148 19 10 107 61 195
112 88 51 187 108 220 125 33 18 72 41 87 52 14 10 29 18 32 18 3 0 34 -17 68
-38 35 -21 88 -52 118 -69 58 -31 624 -357 650 -373 8 -5 44 -26 80 -46 36
-21 99 -57 140 -82 41 -25 95 -56 120 -70 149 -82 278 -164 284 -177 3 -9 6
-213 5 -452 -1 -434 -1 -436 -22 -455 -18 -16 -236 -145 -379 -225 -18 -10
-35 -20 -38 -23 -8 -8 -61 -39 -125 -72 -33 -17 -79 -44 -102 -59 -23 -16 -44
-29 -46 -29 -5 0 -354 -201 -582 -335 -49 -29 -109 -62 -132 -73 l-41 -22 -94
53 c-51 30 -167 96 -258 149 -91 53 -181 105 -200 116 -144 81 -216 126 -227
140 -10 13 -12 116 -13 464 l0 447 33 25 c19 15 37 26 41 26 3 0 39 20 79 43
39 24 166 98 282 164 116 66 242 139 281 162 39 22 75 41 81 41 5 0 47 -22 93
-50 46 -27 84 -50 86 -50 2 0 53 -29 115 -65 61 -36 116 -65 120 -65 5 0 9 -4
9 -10 0 -5 4 -10 9 -10 13 0 422 -237 439 -254 12 -11 -2 -23 -85 -72 -110
-65 -315 -184 -383 -222 -25 -14 -88 -50 -140 -80 -52 -30 -130 -75 -173 -99
l-78 -45 -117 67 c-64 37 -120 70 -124 74 -12 11 5 26 67 61 212 118 424 246
448 268 33 31 34 43 5 69 -49 43 -266 163 -295 163 -26 0 -471 -255 -500 -287
-23 -24 -23 -28 -23 -303 l0 -278 25 -30 c28 -33 472 -292 501 -292 10 0 55
21 99 46 44 25 98 56 120 69 22 12 202 116 400 230 198 115 399 230 446 257
135 75 124 43 124 378 0 270 -1 289 -19 309 -11 12 -72 51 -135 87 -64 36
-170 97 -236 136 -66 38 -140 81 -165 95 -79 45 -234 135 -272 159 -21 13 -40
24 -42 24 -2 0 -40 21 -83 46 -136 81 -220 124 -241 124 -11 0 -46 -15 -79
-34 -134 -77 -400 -230 -549 -317 -87 -50 -195 -113 -239 -138 -44 -25 -88
-50 -97 -56 -10 -5 -55 -32 -102 -59 -47 -27 -93 -57 -103 -68 -20 -22 -19
-20 -22 -650 -1 -245 -2 -267 -18 -261 -26 10 -236 134 -254 149 -15 13 -17
12 -22 -5 -4 -17 6 -27 51 -55 101 -60 271 -156 276 -156 4 0 6 216 6 479 l0
479 568 327 c312 180 571 331 575 335 7 6 1132 -634 1160 -659 4 -4 9 -136 10
-292 l2 -285 -574 -329 c-315 -182 -579 -330 -585 -330 -7 0 -121 62 -254 139
l-242 139 0 282 0 283 238 137 c130 75 241 141 245 145 10 9 308 -162 299
-172 -4 -3 -137 -81 -297 -173 -159 -92 -294 -169 -298 -172 -4 -2 67 -47 158
-99 l166 -95 474 273 c260 150 470 276 467 279 -11 10 -949 549 -956 549 -4 0
-191 -106 -416 -236 l-410 -237 0 -481 0 -481 406 -235 c224 -129 410 -236
414 -238 4 -2 343 192 754 429 l746 432 0 477 0 477 -742 428 c-409 236 -746
430 -749 431 -3 2 -341 -191 -751 -427z"/>
<path d="M0 1227 c0 -12 294 -188 555 -332 22 -12 81 -46 130 -75 50 -29 113
-65 140 -80 28 -16 184 -105 348 -199 163 -94 299 -171 302 -171 3 0 5 6 5 14
0 8 -35 34 -77 58 -43 24 -370 212 -727 417 -357 205 -655 375 -662 378 -8 3
-14 -1 -14 -10z"/>
<path d="M2233 812 l-743 -426 0 -193 0 -192 283 163 c155 89 492 283 749 432
l468 269 0 188 c0 103 -3 187 -7 187 -5 -1 -342 -193 -750 -428z m725 234 c2
-71 -1 -130 -8 -145 -6 -15 -30 -36 -58 -51 -26 -13 -77 -44 -115 -67 -37 -24
-70 -43 -73 -43 -3 0 -103 -57 -222 -126 -120 -70 -233 -136 -252 -147 -19
-10 -72 -41 -118 -68 -45 -27 -84 -49 -86 -49 -2 0 -33 -17 -67 -38 -35 -21
-89 -52 -119 -69 -66 -36 -225 -129 -260 -152 -14 -9 -29 -16 -35 -16 -5 0
-16 -4 -22 -8 -10 -6 -13 26 -13 148 0 108 3 154 11 150 6 -4 18 0 27 9 15 14
152 95 312 184 25 13 92 52 150 86 106 63 180 105 280 159 30 16 62 36 71 43
8 8 18 14 22 14 3 0 65 35 139 77 73 42 178 102 233 133 55 31 116 66 135 78
60 37 64 31 68 -102z"/>
<path d="M7 876 c-4 -9 144 -100 451 -277 252 -145 583 -336 737 -425 154 -89
282 -157 284 -152 4 11 -30 43 -59 56 -13 6 -298 171 -350 202 -67 41 -203
120 -207 120 -2 0 -37 20 -76 43 -67 41 -111 66 -212 122 -22 12 -132 76 -245
142 -307 179 -317 184 -323 169z"/>
</g>
</svg>
